<svg width="6" height="6" viewBox="0 0 6 6" fill="none" xmlns="http://www.w3.org/2000/svg">
<path d="M2.42718 0.650471C0.764987 0.95293 0.0863398 3.10917 1.2666 4.35803C2.0731 5.20687 3.57793 5.25565 4.42378 4.4556C5.29914 3.62628 5.38765 2.30912 4.62049 1.42125C4.0402 0.748038 3.30254 0.484606 2.42718 0.650471ZM3.65661 2.10423C3.9025 2.33839 3.95168 2.46522 3.95168 2.83598C3.95168 3.21649 3.9025 3.32382 3.62711 3.56774C2.91895 4.20192 1.83705 3.74336 1.83705 2.80671C1.83705 2.38717 2.17146 1.91885 2.54521 1.82128C2.99764 1.69444 3.31237 1.7725 3.65661 2.10423Z" fill="#FA7436"/>
</svg>
