<svg width="9" height="8" viewBox="0 0 9 8" fill="none" xmlns="http://www.w3.org/2000/svg">
<path d="M1.28629 0.583677C0.824025 0.837353 0.794519 1.052 0.824025 4.28148L0.853531 7.28656L1.12892 7.52072L1.40432 7.75488H4.55167H7.69901L7.93507 7.51096C8.17112 7.28656 8.18095 7.22802 8.18095 6.01818C8.18095 4.92543 8.16128 4.74005 8.00391 4.60346C7.75803 4.37905 7.43346 4.39856 7.19741 4.63273C7.0302 4.79859 7.0007 4.9547 7.0007 5.70597V6.58407H4.49265H1.98461L2.00428 4.11562L2.03379 1.65692L3.41075 1.62765C4.66969 1.60814 4.79755 1.58862 4.96476 1.40324C5.19097 1.1203 5.18114 0.96419 4.88607 0.681245C4.65002 0.447083 4.62051 0.437326 3.09602 0.437326C1.94527 0.447083 1.47317 0.476353 1.28629 0.583677Z" fill="#FA7436"/>
</svg>
