<svg width="9" height="9" viewBox="0 0 9 9" fill="none" xmlns="http://www.w3.org/2000/svg">
<path d="M1.53265 0.895761C1.41463 0.915275 1.21792 1.04211 1.09006 1.17871L0.854004 1.43238V4.53503V7.63767L1.09006 7.89134L1.32611 8.14502H4.5128H7.69949L7.93554 7.9011C8.17159 7.6767 8.18143 7.61816 8.18143 6.39856C8.18143 5.19848 8.17159 5.12043 7.96504 4.98384C7.66015 4.76919 7.43393 4.7887 7.19788 5.04238C7.03068 5.218 7.00117 5.38386 7.00117 6.11562V6.97421H4.49313H1.98508L2.00475 4.50576L2.03426 2.04706L3.4309 2.01779C4.80786 1.99827 4.83737 1.98852 4.99473 1.7446C5.20128 1.44214 5.06358 1.06163 4.68 0.925032C4.44395 0.827465 1.96541 0.807951 1.53265 0.895761Z" fill="#FA7436"/>
</svg>
